# xmcd
#
# Track frame offsets:
#	150
#	17320
#	34692
#	52620
#	70472
#	85407
#	103360
#	114692
#	130497
#	148900
#	166312
#	183202
#	199505
#	215092
#
# Disc length: 3073 seconds
#
# Revision: 1
# Processed by: cddbd v1.5.2PL0 Copyright (c) Steve Scherf et al.
# Submitted via: audiograbber 1.83.01
#
DISCID=c90bff0e
DTITLE=Various Artist - Spotlight on Hits #29
DYEAR=1995
DGENRE=Country
TTITLE0=Lee Roy Parnell - Hearts Desire
TTITLE1=Shania Twain - If your not in it for love
TTITLE2=Collin Raye - Not that different
TTITLE3=Terri Clark - If I were you
TTITLE4=Blackhawk - Like there ain't no yesterday
TTITLE5=Joe Diffie - Bigger than the beatles
TTITLE6=David Lee Murphy - Out with a bang
TTITLE7=Keith Stegall - 1969
TTITLE8=Sammy Kershaw - Still lovin' you
TTITLE9=The Mavericks - All you ever do is bring me down
TTITLE10=John Berry - If I had any pride left at all
TTITLE11=Richochet - What do I know
TTITLE12=4 Runner - Ripples
TTITLE13=Tracy Byrd - Heaven in my woman's eyes
EXTD=DEC
EXTT0=
EXTT1=
EXTT2=
EXTT3=
EXTT4=
EXTT5=
EXTT6=
EXTT7=
EXTT8=
EXTT9=
EXTT10=
EXTT11=
EXTT12=
EXTT13=
PLAYORDER=
